<svg width="45" height="39.8393" viewBox="0 0 45 39.8393" fill="none" xmlns="http://www.w3.org/2000/svg">
<g id="Group">
<path id="Vector" d="M45 21.9892C45 18.3966 42.4028 15.4467 39.1238 15.1962C38.7349 13.9102 37.6841 12.9012 36.36 12.5512C35.4771 5.42988 29.5831 0 22.5 0C15.4169 0 9.52295 5.42988 8.64009 12.5512C7.31602 12.9012 6.26511 13.9101 5.87628 15.1962C5.76237 15.2049 5.64935 15.2169 5.5372 15.2321V6.81235C5.5372 6.098 4.94692 5.51887 4.21884 5.51887C3.49075 5.51887 2.90048 6.098 2.90048 6.81235V16.2674C1.15699 17.4819 0 19.5922 0 21.9892C0 25.5819 2.59717 28.5318 5.87619 28.7823C6.26388 30.0642 7.30925 31.0706 8.62743 31.4237C9.18905 34.6311 12.042 37.0799 15.4688 37.0799H15.7736C16.3252 38.6821 17.8707 39.8393 19.6875 39.8393H25.3125C27.5903 39.8393 29.4434 38.0212 29.4434 35.7864C29.4434 33.5516 27.5903 31.7335 25.3125 31.7335H19.6875C17.8707 31.7335 16.3252 32.8907 15.7736 34.4929H15.4688C13.4751 34.4929 11.794 33.1567 11.3057 31.3492C12.8568 30.8243 13.9746 29.3785 13.9746 27.6806V16.2979C13.9746 14.594 12.8491 13.1442 11.2896 12.6239C12.1131 6.91049 16.8395 2.58697 22.5 2.58697C28.1605 2.58697 32.8869 6.91049 33.7104 12.6239C32.1509 13.1442 31.0254 14.594 31.0254 16.2979V27.6806C31.0254 29.8203 32.7996 31.561 34.9805 31.561H35.332C37.1228 31.561 38.6386 30.3869 39.1238 28.7823C42.4028 28.5318 45 25.5819 45 21.9892ZM19.6875 34.3205H25.3125C26.1364 34.3205 26.8066 34.9781 26.8066 35.7864C26.8066 36.5948 26.1364 37.2524 25.3125 37.2524H19.6875C18.8636 37.2524 18.1934 36.5948 18.1934 35.7864C18.1934 34.9781 18.8636 34.3205 19.6875 34.3205ZM2.63672 21.9892C2.63672 19.938 3.99243 18.1719 5.71289 17.8253V26.1531C3.99243 25.8066 2.63672 24.0404 2.63672 21.9892ZM11.3379 27.6806C11.3379 28.3938 10.7465 28.9741 10.0195 28.9741H9.66797C8.94103 28.9741 8.34961 28.3938 8.34961 27.6806C8.34961 23.5299 8.34961 20.1349 8.34961 16.2979C8.34961 15.5847 8.94103 15.0044 9.66797 15.0044H10.0195C10.7465 15.0044 11.3379 15.5847 11.3379 16.2979V27.6806ZM36.6504 27.6806C36.6504 28.3938 36.059 28.9741 35.332 28.9741H34.9805C34.2535 28.9741 33.6621 28.3938 33.6621 27.6806V16.2979C33.6621 15.5847 34.2535 15.0044 34.9805 15.0044H35.332C36.059 15.0044 36.6504 15.5847 36.6504 16.2979V27.6806ZM39.2871 26.1531V17.8254C41.0076 18.172 42.3633 19.9381 42.3633 21.9893C42.3633 24.0405 41.0076 25.8066 39.2871 26.1531Z" fill="var(--fill-0, #0F2041)"/>
</g>
</svg>
